/* XPM */
static char *netgen__x__[] = {
/* columns rows colors chars-per-pixel */
"16 16 176 2",
"   c #1D3E00",
".  c #393D11",
"X  c #560000",
"o  c #591B00",
"O  c #660000",
"+  c #660101",
"@  c #6D0000",
"#  c #670800",
"$  c #6E0C0C",
"%  c #710000",
"&  c #790000",
"*  c #7B0000",
"=  c #780D0D",
"-  c #7D1F05",
";  c #621313",
":  c #6B1617",
">  c #6C1818",
",  c #791412",
"<  c #4C2500",
"1  c #402E00",
"2  c #572300",
"3  c #563607",
"4  c #5B391E",
"5  c #7B2709",
"6  c #643E11",
"7  c #7B3619",
"8  c #612722",
"9  c #6B2424",
"0  c #782B2A",
"q  c #773333",
"w  c #1D4A00",
"e  c #005600",
"r  c #005C00",
"t  c #005E00",
"y  c #075E07",
"u  c #244E00",
"i  c #244C0D",
"p  c #394000",
"a  c #255006",
"s  c #2A5200",
"d  c #006200",
"f  c #006300",
"g  c #006201",
"h  c #026200",
"j  c #036203",
"k  c #046200",
"l  c #006600",
"z  c #0A6103",
"x  c #006800",
"c  c #006900",
"v  c #006A00",
"b  c #006B00",
"n  c #036B00",
"m  c #036903",
"M  c #006D00",
"N  c #006F00",
"B  c #056D05",
"V  c #096309",
"C  c #0B610C",
"Z  c #086D08",
"A  c #10640E",
"S  c #007000",
"D  c #017000",
"F  c #017200",
"G  c #037103",
"H  c #047300",
"J  c #007400",
"K  c #077007",
"L  c #007900",
"P  c #037A00",
"I  c #0C7E0C",
"U  c #116A11",
"Y  c #146F14",
"T  c #1E6F1E",
"R  c #2B6323",
"E  c #216A21",
"W  c #296D29",
"Q  c #227422",
"!  c #217822",
"~  c #227B22",
"^  c #337533",
"/  c #3E7637",
"(  c #3C763C",
")  c #3F783D",
"_  c #454300",
"`  c #5C5813",
"'  c #4D5C39",
"]  c #526237",
"[  c #5E7E5E",
"{  c #800000",
"}  c #810000",
"|  c #8A0000",
" . c #8F0000",
".. c #880900",
"X. c #920000",
"o. c #920400",
"O. c #9D0000",
"+. c #9E0000",
"@. c #A00000",
"#. c #A90907",
"$. c #B20600",
"%. c #B40600",
"&. c #BF0000",
"*. c #AD1D1E",
"=. c #B61B1C",
"-. c #8B2600",
";. c #982004",
":. c #B02424",
">. c #BB2929",
",. c #C40000",
"<. c #C10600",
"1. c #C90000",
"2. c #CD0000",
"3. c #CE0202",
"4. c #CD0708",
"5. c #D30707",
"6. c #DE1313",
"7. c #E10000",
"8. c #EE090B",
"9. c #C32F2F",
"0. c #CA302E",
"q. c #CA3F3B",
"w. c #875959",
"e. c #B74E4E",
"r. c #B84F4F",
"t. c #9E7473",
"y. c #B76E70",
"u. c #A77276",
"i. c #A17D7D",
"p. c #AE7979",
"a. c #D54545",
"s. c #DA4040",
"d. c #D84D49",
"f. c #538155",
"g. c #548654",
"h. c #588C59",
"j. c #6A976A",
"k. c #A08978",
"l. c #B9867E",
"z. c #809B80",
"x. c #809F80",
"c. c #979C8E",
"v. c #A68A80",
"b. c #BC8486",
"n. c #A79797",
"m. c #B39898",
"M. c #B19E9E",
"N. c #84A485",
"B. c #80A880",
"V. c #8FA88F",
"C. c #8CB18C",
"Z. c #ABA68F",
"A. c #B7A1A4",
"S. c #B7A9A9",
"D. c #BEAAAA",
"F. c #A6B7A5",
"G. c #AEB2AD",
"H. c #E39A9B",
"J. c #D6AEAE",
"K. c #DEAEAE",
"L. c #C5B7B7",
"P. c #C1BBBB",
"I. c #A4C3A4",
"U. c #BEC3BE",
"Y. c #CFC7C6",
"T. c #DCC2C2",
"R. c #CBD6CB",
"E. c #D3D2D2",
"W. c #D5D2D2",
"Q. c #DED9D9",
"!. c #E3D2D5",
"~. c #E7D8DC",
"^. c #DBE3DB",
"/. c #DAE2DE",
"(. c #F9FDFB",
"). c None",
/* pixels */
").).).).).).).).).).).).).).).).",
").).).R.V.N.B.z.N.k.9.r.T.).).).",
").).G.^ B d K v z ;.7.1.>.K.).).",
").!.] d v l v t i 0.6.3.O.:.J.).",
").t.a S v y Y I / b.s.8.3.&.e.).",
"Q.0 w l V j.U.F.k.H.d.5 -.<.=.L.",
"S., s S Q ^.(.Z.a.q.` H P . #.p.",
"n.= 1 v K g.h.6 4.7 ) C J k - y.",
"P.> # u S k _ %.5.b./.W v P 3 u.",
"E.9 * ..2 o $.,.*.~.I.U e M . A.",
").w.+ * | X.@.O.4 [ T d v S ' ).",
").D.> X * } X.o.w t t l M A c.).",
").).i.; O % @ < v M v S Z [ ).).",
").).).m.q $ 8 R ~ ~ E ( C.).).).",
").).).).W.M.Y.).).).).).).).).).",
").).).).).).).).).).).).).).).)."
};
